<?xml version="1.0" encoding="utf-8"?>
<svg viewBox="-14.0284 -6.029 528.0565 512.0573" width="528.057" height="512.057" xmlns="http://www.w3.org/2000/svg">
   <path fill="rgb(63, 126, 247)"
      d="M 278.728 11.971 C 273.428 0.971 262.228 -6.029 249.928 -6.029 C 237.628 -6.029 226.528 0.971 221.128 11.971 L 156.828 144.271 L 13.228 165.471 C 1.228 167.271 -8.772 175.671 -12.472 187.171 C -16.172 198.671 -13.172 211.371 -4.572 219.871 L 99.628 322.971 L 75.028 468.671 C 73.028 480.671 78.028 492.871 87.928 499.971 C 97.828 507.071 110.928 507.971 121.728 502.271 L 250.028 433.771 L 378.328 502.271 C 389.128 507.971 402.228 507.171 412.128 499.971 C 422.028 492.771 427.028 480.671 425.028 468.671 L 400.328 322.971 L 504.528 219.871 C 513.128 211.371 516.228 198.671 512.428 187.171 C 508.628 175.671 498.728 167.271 486.728 165.471 L 343.028 144.271 L 278.728 11.971 Z"
      transform="matrix(0.9999999999999999, 0, 0, 0.9999999999999999, 0, 0)" />

  <g>
    <path
    d="M 272.907 192.826 C 267.558 191.285 261.988 194.399 260.447 199.748 L 220.17 340.713 C 218.628 346.063 221.745 351.632 227.093 353.174 C 232.442 354.715 238.012 351.601 239.553 346.252 L 279.829 205.287 C 281.372 199.937 278.255 194.368 272.907 192.826 Z M 298.269 230.617 C 294.336 234.55 294.336 240.936 298.269 244.87 L 326.367 273 L 298.237 301.13 C 294.303 305.064 294.303 311.45 298.237 315.383 C 302.169 319.318 308.556 319.318 312.491 315.383 L 347.732 280.143 C 351.664 276.208 351.664 269.821 347.732 265.889 L 312.491 230.648 C 308.556 226.715 302.169 226.715 298.237 230.648 L 298.269 230.617 Z M 201.763 230.617 C 197.831 226.682 191.444 226.682 187.509 230.617 L 152.268 265.857 C 148.336 269.792 148.336 276.177 152.268 280.111 L 187.509 315.352 C 191.444 319.285 197.831 319.285 201.763 315.352 C 205.697 311.42 205.697 305.033 201.763 301.099 L 173.633 273 L 201.763 244.87 C 205.697 240.936 205.697 234.55 201.763 230.617 Z"
    style="" transform="matrix(0.9999999999999999, 0, 0, 0.9999999999999999, 0, 0)" />

       <animate attributeName="fill" values="white;rgb(63, 126, 247);blue;purple;red;orange;yellow;green;cyan;blue;" dur="14s"
      repeatCount="indefinite" />
  </g>

  </svg>